solid package_cube
  facet normal 0 0 -1
    outer loop
      vertex -0.15 -0.15 0
      vertex -0.15 0.15 0
      vertex 0.15 0.15 0
    endloop
  endfacet
  facet normal 0 0 -1
    outer loop
      vertex -0.15 -0.15 0
      vertex 0.15 0.15 0
      vertex 0.15 -0.15 0
    endloop
  endfacet
  facet normal 0 0 1
    outer loop
      vertex -0.15 -0.15 0.3
      vertex 0.15 -0.15 0.3
      vertex 0.15 0.15 0.3
    endloop
  endfacet
  facet normal 0 0 1
    outer loop
      vertex -0.15 -0.15 0.3
      vertex 0.15 0.15 0.3
      vertex -0.15 0.15 0.3
    endloop
  endfacet
  facet normal 0 1 0
    outer loop
      vertex -0.15 0.15 0
      vertex -0.15 0.15 0.3
      vertex 0.15 0.15 0.3
    endloop
  endfacet
  facet normal 0 1 0
    outer loop
      vertex -0.15 0.15 0
      vertex 0.15 0.15 0.3
      vertex 0.15 0.15 0
    endloop
  endfacet
  facet normal 0 -1 0
    outer loop
      vertex -0.15 -0.15 0
      vertex 0.15 -0.15 0
      vertex 0.15 -0.15 0.3
    endloop
  endfacet
  facet normal 0 -1 0
    outer loop
      vertex -0.15 -0.15 0
      vertex 0.15 -0.15 0.3
      vertex -0.15 -0.15 0.3
    endloop
  endfacet
  facet normal 1 0 0
    outer loop
      vertex 0.15 -0.15 0
      vertex 0.15 0.15 0
      vertex 0.15 0.15 0.3
    endloop
  endfacet
  facet normal 1 0 0
    outer loop
      vertex 0.15 -0.15 0
      vertex 0.15 0.15 0.3
      vertex 0.15 -0.15 0.3
    endloop
  endfacet
  facet normal -1 0 0
    outer loop
      vertex -0.15 -0.15 0
      vertex -0.15 -0.15 0.3
      vertex -0.15 0.15 0.3
    endloop
  endfacet
  facet normal -1 0 0
    outer loop
      vertex -0.15 -0.15 0
      vertex -0.15 0.15 0.3
      vertex -0.15 0.15 0
    endloop
  endfacet
endsolid package_cube
