solid package_rect
  facet normal 0 0 -1
    outer loop
      vertex -0.21 -0.14 0
      vertex -0.21 0.14 0
      vertex 0.21 0.14 0
    endloop
  endfacet
  facet normal 0 0 -1
    outer loop
      vertex -0.21 -0.14 0
      vertex 0.21 0.14 0
      vertex 0.21 -0.14 0
    endloop
  endfacet
  facet normal 0 0 1
    outer loop
      vertex -0.21 -0.14 0.2
      vertex 0.21 -0.14 0.2
      vertex 0.21 0.14 0.2
    endloop
  endfacet
  facet normal 0 0 1
    outer loop
      vertex -0.21 -0.14 0.2
      vertex 0.21 0.14 0.2
      vertex -0.21 0.14 0.2
    endloop
  endfacet
  facet normal 0 1 0
    outer loop
      vertex -0.21 0.14 0
      vertex -0.21 0.14 0.2
      vertex 0.21 0.14 0.2
    endloop
  endfacet
  facet normal 0 1 0
    outer loop
      vertex -0.21 0.14 0
      vertex 0.21 0.14 0.2
      vertex 0.21 0.14 0
    endloop
  endfacet
  facet normal 0 -1 0
    outer loop
      vertex -0.21 -0.14 0
      vertex 0.21 -0.14 0
      vertex 0.21 -0.14 0.2
    endloop
  endfacet
  facet normal 0 -1 0
    outer loop
      vertex -0.21 -0.14 0
      vertex 0.21 -0.14 0.2
      vertex -0.21 -0.14 0.2
    endloop
  endfacet
  facet normal 1 0 0
    outer loop
      vertex 0.21 -0.14 0
      vertex 0.21 0.14 0
      vertex 0.21 0.14 0.2
    endloop
  endfacet
  facet normal 1 0 0
    outer loop
      vertex 0.21 -0.14 0
      vertex 0.21 0.14 0.2
      vertex 0.21 -0.14 0.2
    endloop
  endfacet
  facet normal -1 0 0
    outer loop
      vertex -0.21 -0.14 0
      vertex -0.21 -0.14 0.2
      vertex -0.21 0.14 0.2
    endloop
  endfacet
  facet normal -1 0 0
    outer loop
      vertex -0.21 -0.14 0
      vertex -0.21 0.14 0.2
      vertex -0.21 0.14 0
    endloop
  endfacet
endsolid package_rect
