solid package_flat
  facet normal 0 0 -1
    outer loop
      vertex -0.18 -0.12 0
      vertex -0.18 0.12 0
      vertex 0.18 0.12 0
    endloop
  endfacet
  facet normal 0 0 -1
    outer loop
      vertex -0.18 -0.12 0
      vertex 0.18 0.12 0
      vertex 0.18 -0.12 0
    endloop
  endfacet
  facet normal 0 0 1
    outer loop
      vertex -0.18 -0.12 0.12
      vertex 0.18 -0.12 0.12
      vertex 0.18 0.12 0.12
    endloop
  endfacet
  facet normal 0 0 1
    outer loop
      vertex -0.18 -0.12 0.12
      vertex 0.18 0.12 0.12
      vertex -0.18 0.12 0.12
    endloop
  endfacet
  facet normal 0 1 0
    outer loop
      vertex -0.18 0.12 0
      vertex -0.18 0.12 0.12
      vertex 0.18 0.12 0.12
    endloop
  endfacet
  facet normal 0 1 0
    outer loop
      vertex -0.18 0.12 0
      vertex 0.18 0.12 0.12
      vertex 0.18 0.12 0
    endloop
  endfacet
  facet normal 0 -1 0
    outer loop
      vertex -0.18 -0.12 0
      vertex 0.18 -0.12 0
      vertex 0.18 -0.12 0.12
    endloop
  endfacet
  facet normal 0 -1 0
    outer loop
      vertex -0.18 -0.12 0
      vertex 0.18 -0.12 0.12
      vertex -0.18 -0.12 0.12
    endloop
  endfacet
  facet normal 1 0 0
    outer loop
      vertex 0.18 -0.12 0
      vertex 0.18 0.12 0
      vertex 0.18 0.12 0.12
    endloop
  endfacet
  facet normal 1 0 0
    outer loop
      vertex 0.18 -0.12 0
      vertex 0.18 0.12 0.12
      vertex 0.18 -0.12 0.12
    endloop
  endfacet
  facet normal -1 0 0
    outer loop
      vertex -0.18 -0.12 0
      vertex -0.18 -0.12 0.12
      vertex -0.18 0.12 0.12
    endloop
  endfacet
  facet normal -1 0 0
    outer loop
      vertex -0.18 -0.12 0
      vertex -0.18 0.12 0.12
      vertex -0.18 0.12 0
    endloop
  endfacet
endsolid package_flat
