solid pallet_simple
  facet normal 0 0 -1
    outer loop
      vertex -0.4 -0.2075 0
      vertex -0.4 -0.1525 0
      vertex 0.4 -0.1525 0
    endloop
  endfacet
  facet normal 0 0 -1
    outer loop
      vertex -0.4 -0.2075 0
      vertex 0.4 -0.1525 0
      vertex 0.4 -0.2075 0
    endloop
  endfacet
  facet normal 0 0 1
    outer loop
      vertex -0.4 -0.2075 0.07
      vertex 0.4 -0.2075 0.07
      vertex 0.4 -0.1525 0.07
    endloop
  endfacet
  facet normal 0 0 1
    outer loop
      vertex -0.4 -0.2075 0.07
      vertex 0.4 -0.1525 0.07
      vertex -0.4 -0.1525 0.07
    endloop
  endfacet
  facet normal 0 1 0
    outer loop
      vertex -0.4 -0.1525 0
      vertex -0.4 -0.1525 0.07
      vertex 0.4 -0.1525 0.07
    endloop
  endfacet
  facet normal 0 1 0
    outer loop
      vertex -0.4 -0.1525 0
      vertex 0.4 -0.1525 0.07
      vertex 0.4 -0.1525 0
    endloop
  endfacet
  facet normal 0 -1 0
    outer loop
      vertex -0.4 -0.2075 0
      vertex 0.4 -0.2075 0
      vertex 0.4 -0.2075 0.07
    endloop
  endfacet
  facet normal 0 -1 0
    outer loop
      vertex -0.4 -0.2075 0
      vertex 0.4 -0.2075 0.07
      vertex -0.4 -0.2075 0.07
    endloop
  endfacet
  facet normal 1 0 0
    outer loop
      vertex 0.4 -0.2075 0
      vertex 0.4 -0.1525 0
      vertex 0.4 -0.1525 0.07
    endloop
  endfacet
  facet normal 1 0 0
    outer loop
      vertex 0.4 -0.2075 0
      vertex 0.4 -0.1525 0.07
      vertex 0.4 -0.2075 0.07
    endloop
  endfacet
  facet normal -1 0 0
    outer loop
      vertex -0.4 -0.2075 0
      vertex -0.4 -0.2075 0.07
      vertex -0.4 -0.1525 0.07
    endloop
  endfacet
  facet normal -1 0 0
    outer loop
      vertex -0.4 -0.2075 0
      vertex -0.4 -0.1525 0.07
      vertex -0.4 -0.1525 0
    endloop
  endfacet
  facet normal 0 0 -1
    outer loop
      vertex -0.4 -0.0275 0
      vertex -0.4 0.0275 0
      vertex 0.4 0.0275 0
    endloop
  endfacet
  facet normal 0 0 -1
    outer loop
      vertex -0.4 -0.0275 0
      vertex 0.4 0.0275 0
      vertex 0.4 -0.0275 0
    endloop
  endfacet
  facet normal 0 0 1
    outer loop
      vertex -0.4 -0.0275 0.07
      vertex 0.4 -0.0275 0.07
      vertex 0.4 0.0275 0.07
    endloop
  endfacet
  facet normal 0 0 1
    outer loop
      vertex -0.4 -0.0275 0.07
      vertex 0.4 0.0275 0.07
      vertex -0.4 0.0275 0.07
    endloop
  endfacet
  facet normal 0 1 0
    outer loop
      vertex -0.4 0.0275 0
      vertex -0.4 0.0275 0.07
      vertex 0.4 0.0275 0.07
    endloop
  endfacet
  facet normal 0 1 0
    outer loop
      vertex -0.4 0.0275 0
      vertex 0.4 0.0275 0.07
      vertex 0.4 0.0275 0
    endloop
  endfacet
  facet normal 0 -1 0
    outer loop
      vertex -0.4 -0.0275 0
      vertex 0.4 -0.0275 0
      vertex 0.4 -0.0275 0.07
    endloop
  endfacet
  facet normal 0 -1 0
    outer loop
      vertex -0.4 -0.0275 0
      vertex 0.4 -0.0275 0.07
      vertex -0.4 -0.0275 0.07
    endloop
  endfacet
  facet normal 1 0 0
    outer loop
      vertex 0.4 -0.0275 0
      vertex 0.4 0.0275 0
      vertex 0.4 0.0275 0.07
    endloop
  endfacet
  facet normal 1 0 0
    outer loop
      vertex 0.4 -0.0275 0
      vertex 0.4 0.0275 0.07
      vertex 0.4 -0.0275 0.07
    endloop
  endfacet
  facet normal -1 0 0
    outer loop
      vertex -0.4 -0.0275 0
      vertex -0.4 -0.0275 0.07
      vertex -0.4 0.0275 0.07
    endloop
  endfacet
  facet normal -1 0 0
    outer loop
      vertex -0.4 -0.0275 0
      vertex -0.4 0.0275 0.07
      vertex -0.4 0.0275 0
    endloop
  endfacet
  facet normal 0 0 -1
    outer loop
      vertex -0.4 0.1525 0
      vertex -0.4 0.2075 0
      vertex 0.4 0.2075 0
    endloop
  endfacet
  facet normal 0 0 -1
    outer loop
      vertex -0.4 0.1525 0
      vertex 0.4 0.2075 0
      vertex 0.4 0.1525 0
    endloop
  endfacet
  facet normal 0 0 1
    outer loop
      vertex -0.4 0.1525 0.07
      vertex 0.4 0.1525 0.07
      vertex 0.4 0.2075 0.07
    endloop
  endfacet
  facet normal 0 0 1
    outer loop
      vertex -0.4 0.1525 0.07
      vertex 0.4 0.2075 0.07
      vertex -0.4 0.2075 0.07
    endloop
  endfacet
  facet normal 0 1 0
    outer loop
      vertex -0.4 0.2075 0
      vertex -0.4 0.2075 0.07
      vertex 0.4 0.2075 0.07
    endloop
  endfacet
  facet normal 0 1 0
    outer loop
      vertex -0.4 0.2075 0
      vertex 0.4 0.2075 0.07
      vertex 0.4 0.2075 0
    endloop
  endfacet
  facet normal 0 -1 0
    outer loop
      vertex -0.4 0.1525 0
      vertex 0.4 0.1525 0
      vertex 0.4 0.1525 0.07
    endloop
  endfacet
  facet normal 0 -1 0
    outer loop
      vertex -0.4 0.1525 0
      vertex 0.4 0.1525 0.07
      vertex -0.4 0.1525 0.07
    endloop
  endfacet
  facet normal 1 0 0
    outer loop
      vertex 0.4 0.1525 0
      vertex 0.4 0.2075 0
      vertex 0.4 0.2075 0.07
    endloop
  endfacet
  facet normal 1 0 0
    outer loop
      vertex 0.4 0.1525 0
      vertex 0.4 0.2075 0.07
      vertex 0.4 0.1525 0.07
    endloop
  endfacet
  facet normal -1 0 0
    outer loop
      vertex -0.4 0.1525 0
      vertex -0.4 0.1525 0.07
      vertex -0.4 0.2075 0.07
    endloop
  endfacet
  facet normal -1 0 0
    outer loop
      vertex -0.4 0.1525 0
      vertex -0.4 0.2075 0.07
      vertex -0.4 0.2075 0
    endloop
  endfacet
  facet normal 0 0 -1
    outer loop
      vertex -0.3125 -0.24 0.07
      vertex -0.3125 0.24 0.07
      vertex -0.2475 0.24 0.07
    endloop
  endfacet
  facet normal 0 0 -1
    outer loop
      vertex -0.3125 -0.24 0.07
      vertex -0.2475 0.24 0.07
      vertex -0.2475 -0.24 0.07
    endloop
  endfacet
  facet normal 0 0 1
    outer loop
      vertex -0.3125 -0.24 0.11
      vertex -0.2475 -0.24 0.11
      vertex -0.2475 0.24 0.11
    endloop
  endfacet
  facet normal 0 0 1
    outer loop
      vertex -0.3125 -0.24 0.11
      vertex -0.2475 0.24 0.11
      vertex -0.3125 0.24 0.11
    endloop
  endfacet
  facet normal 0 1 0
    outer loop
      vertex -0.3125 0.24 0.07
      vertex -0.3125 0.24 0.11
      vertex -0.2475 0.24 0.11
    endloop
  endfacet
  facet normal 0 1 0
    outer loop
      vertex -0.3125 0.24 0.07
      vertex -0.2475 0.24 0.11
      vertex -0.2475 0.24 0.07
    endloop
  endfacet
  facet normal 0 -1 0
    outer loop
      vertex -0.3125 -0.24 0.07
      vertex -0.2475 -0.24 0.07
      vertex -0.2475 -0.24 0.11
    endloop
  endfacet
  facet normal 0 -1 0
    outer loop
      vertex -0.3125 -0.24 0.07
      vertex -0.2475 -0.24 0.11
      vertex -0.3125 -0.24 0.11
    endloop
  endfacet
  facet normal 1 0 0
    outer loop
      vertex -0.2475 -0.24 0.07
      vertex -0.2475 0.24 0.07
      vertex -0.2475 0.24 0.11
    endloop
  endfacet
  facet normal 1 0 0
    outer loop
      vertex -0.2475 -0.24 0.07
      vertex -0.2475 0.24 0.11
      vertex -0.2475 -0.24 0.11
    endloop
  endfacet
  facet normal -1 0 0
    outer loop
      vertex -0.3125 -0.24 0.07
      vertex -0.3125 -0.24 0.11
      vertex -0.3125 0.24 0.11
    endloop
  endfacet
  facet normal -1 0 0
    outer loop
      vertex -0.3125 -0.24 0.07
      vertex -0.3125 0.24 0.11
      vertex -0.3125 0.24 0.07
    endloop
  endfacet
  facet normal 0 0 -1
    outer loop
      vertex -0.0325 -0.24 0.07
      vertex -0.0325 0.24 0.07
      vertex 0.0325 0.24 0.07
    endloop
  endfacet
  facet normal 0 0 -1
    outer loop
      vertex -0.0325 -0.24 0.07
      vertex 0.0325 0.24 0.07
      vertex 0.0325 -0.24 0.07
    endloop
  endfacet
  facet normal 0 0 1
    outer loop
      vertex -0.0325 -0.24 0.11
      vertex 0.0325 -0.24 0.11
      vertex 0.0325 0.24 0.11
    endloop
  endfacet
  facet normal 0 0 1
    outer loop
      vertex -0.0325 -0.24 0.11
      vertex 0.0325 0.24 0.11
      vertex -0.0325 0.24 0.11
    endloop
  endfacet
  facet normal 0 1 0
    outer loop
      vertex -0.0325 0.24 0.07
      vertex -0.0325 0.24 0.11
      vertex 0.0325 0.24 0.11
    endloop
  endfacet
  facet normal 0 1 0
    outer loop
      vertex -0.0325 0.24 0.07
      vertex 0.0325 0.24 0.11
      vertex 0.0325 0.24 0.07
    endloop
  endfacet
  facet normal 0 -1 0
    outer loop
      vertex -0.0325 -0.24 0.07
      vertex 0.0325 -0.24 0.07
      vertex 0.0325 -0.24 0.11
    endloop
  endfacet
  facet normal 0 -1 0
    outer loop
      vertex -0.0325 -0.24 0.07
      vertex 0.0325 -0.24 0.11
      vertex -0.0325 -0.24 0.11
    endloop
  endfacet
  facet normal 1 0 0
    outer loop
      vertex 0.0325 -0.24 0.07
      vertex 0.0325 0.24 0.07
      vertex 0.0325 0.24 0.11
    endloop
  endfacet
  facet normal 1 0 0
    outer loop
      vertex 0.0325 -0.24 0.07
      vertex 0.0325 0.24 0.11
      vertex 0.0325 -0.24 0.11
    endloop
  endfacet
  facet normal -1 0 0
    outer loop
      vertex -0.0325 -0.24 0.07
      vertex -0.0325 -0.24 0.11
      vertex -0.0325 0.24 0.11
    endloop
  endfacet
  facet normal -1 0 0
    outer loop
      vertex -0.0325 -0.24 0.07
      vertex -0.0325 0.24 0.11
      vertex -0.0325 0.24 0.07
    endloop
  endfacet
  facet normal 0 0 -1
    outer loop
      vertex 0.2475 -0.24 0.07
      vertex 0.2475 0.24 0.07
      vertex 0.3125 0.24 0.07
    endloop
  endfacet
  facet normal 0 0 -1
    outer loop
      vertex 0.2475 -0.24 0.07
      vertex 0.3125 0.24 0.07
      vertex 0.3125 -0.24 0.07
    endloop
  endfacet
  facet normal 0 0 1
    outer loop
      vertex 0.2475 -0.24 0.11
      vertex 0.3125 -0.24 0.11
      vertex 0.3125 0.24 0.11
    endloop
  endfacet
  facet normal 0 0 1
    outer loop
      vertex 0.2475 -0.24 0.11
      vertex 0.3125 0.24 0.11
      vertex 0.2475 0.24 0.11
    endloop
  endfacet
  facet normal 0 1 0
    outer loop
      vertex 0.2475 0.24 0.07
      vertex 0.2475 0.24 0.11
      vertex 0.3125 0.24 0.11
    endloop
  endfacet
  facet normal 0 1 0
    outer loop
      vertex 0.2475 0.24 0.07
      vertex 0.3125 0.24 0.11
      vertex 0.3125 0.24 0.07
    endloop
  endfacet
  facet normal 0 -1 0
    outer loop
      vertex 0.2475 -0.24 0.07
      vertex 0.3125 -0.24 0.07
      vertex 0.3125 -0.24 0.11
    endloop
  endfacet
  facet normal 0 -1 0
    outer loop
      vertex 0.2475 -0.24 0.07
      vertex 0.3125 -0.24 0.11
      vertex 0.2475 -0.24 0.11
    endloop
  endfacet
  facet normal 1 0 0
    outer loop
      vertex 0.3125 -0.24 0.07
      vertex 0.3125 0.24 0.07
      vertex 0.3125 0.24 0.11
    endloop
  endfacet
  facet normal 1 0 0
    outer loop
      vertex 0.3125 -0.24 0.07
      vertex 0.3125 0.24 0.11
      vertex 0.3125 -0.24 0.11
    endloop
  endfacet
  facet normal -1 0 0
    outer loop
      vertex 0.2475 -0.24 0.07
      vertex 0.2475 -0.24 0.11
      vertex 0.2475 0.24 0.11
    endloop
  endfacet
  facet normal -1 0 0
    outer loop
      vertex 0.2475 -0.24 0.07
      vertex 0.2475 0.24 0.11
      vertex 0.2475 0.24 0.07
    endloop
  endfacet
endsolid pallet_simple
