solid shelf_unit
  facet normal 0 0 -1
    outer loop
      vertex -0.6 -0.225 0
      vertex -0.6 -0.185 0
      vertex -0.56 -0.185 0
    endloop
  endfacet
  facet normal 0 0 -1
    outer loop
      vertex -0.6 -0.225 0
      vertex -0.56 -0.185 0
      vertex -0.56 -0.225 0
    endloop
  endfacet
  facet normal 0 0 1
    outer loop
      vertex -0.6 -0.225 1.2
      vertex -0.56 -0.225 1.2
      vertex -0.56 -0.185 1.2
    endloop
  endfacet
  facet normal 0 0 1
    outer loop
      vertex -0.6 -0.225 1.2
      vertex -0.56 -0.185 1.2
      vertex -0.6 -0.185 1.2
    endloop
  endfacet
  facet normal 0 1 0
    outer loop
      vertex -0.6 -0.185 0
      vertex -0.6 -0.185 1.2
      vertex -0.56 -0.185 1.2
    endloop
  endfacet
  facet normal 0 1 0
    outer loop
      vertex -0.6 -0.185 0
      vertex -0.56 -0.185 1.2
      vertex -0.56 -0.185 0
    endloop
  endfacet
  facet normal 0 -1 0
    outer loop
      vertex -0.6 -0.225 0
      vertex -0.56 -0.225 0
      vertex -0.56 -0.225 1.2
    endloop
  endfacet
  facet normal 0 -1 0
    outer loop
      vertex -0.6 -0.225 0
      vertex -0.56 -0.225 1.2
      vertex -0.6 -0.225 1.2
    endloop
  endfacet
  facet normal 1 0 0
    outer loop
      vertex -0.56 -0.225 0
      vertex -0.56 -0.185 0
      vertex -0.56 -0.185 1.2
    endloop
  endfacet
  facet normal 1 0 0
    outer loop
      vertex -0.56 -0.225 0
      vertex -0.56 -0.185 1.2
      vertex -0.56 -0.225 1.2
    endloop
  endfacet
  facet normal -1 0 0
    outer loop
      vertex -0.6 -0.225 0
      vertex -0.6 -0.225 1.2
      vertex -0.6 -0.185 1.2
    endloop
  endfacet
  facet normal -1 0 0
    outer loop
      vertex -0.6 -0.225 0
      vertex -0.6 -0.185 1.2
      vertex -0.6 -0.185 0
    endloop
  endfacet
  facet normal 0 0 -1
    outer loop
      vertex -0.6 0.185 0
      vertex -0.6 0.225 0
      vertex -0.56 0.225 0
    endloop
  endfacet
  facet normal 0 0 -1
    outer loop
      vertex -0.6 0.185 0
      vertex -0.56 0.225 0
      vertex -0.56 0.185 0
    endloop
  endfacet
  facet normal 0 0 1
    outer loop
      vertex -0.6 0.185 1.2
      vertex -0.56 0.185 1.2
      vertex -0.56 0.225 1.2
    endloop
  endfacet
  facet normal 0 0 1
    outer loop
      vertex -0.6 0.185 1.2
      vertex -0.56 0.225 1.2
      vertex -0.6 0.225 1.2
    endloop
  endfacet
  facet normal 0 1 0
    outer loop
      vertex -0.6 0.225 0
      vertex -0.6 0.225 1.2
      vertex -0.56 0.225 1.2
    endloop
  endfacet
  facet normal 0 1 0
    outer loop
      vertex -0.6 0.225 0
      vertex -0.56 0.225 1.2
      vertex -0.56 0.225 0
    endloop
  endfacet
  facet normal 0 -1 0
    outer loop
      vertex -0.6 0.185 0
      vertex -0.56 0.185 0
      vertex -0.56 0.185 1.2
    endloop
  endfacet
  facet normal 0 -1 0
    outer loop
      vertex -0.6 0.185 0
      vertex -0.56 0.185 1.2
      vertex -0.6 0.185 1.2
    endloop
  endfacet
  facet normal 1 0 0
    outer loop
      vertex -0.56 0.185 0
      vertex -0.56 0.225 0
      vertex -0.56 0.225 1.2
    endloop
  endfacet
  facet normal 1 0 0
    outer loop
      vertex -0.56 0.185 0
      vertex -0.56 0.225 1.2
      vertex -0.56 0.185 1.2
    endloop
  endfacet
  facet normal -1 0 0
    outer loop
      vertex -0.6 0.185 0
      vertex -0.6 0.185 1.2
      vertex -0.6 0.225 1.2
    endloop
  endfacet
  facet normal -1 0 0
    outer loop
      vertex -0.6 0.185 0
      vertex -0.6 0.225 1.2
      vertex -0.6 0.225 0
    endloop
  endfacet
  facet normal 0 0 -1
    outer loop
      vertex 0.56 -0.225 0
      vertex 0.56 -0.185 0
      vertex 0.6 -0.185 0
    endloop
  endfacet
  facet normal 0 0 -1
    outer loop
      vertex 0.56 -0.225 0
      vertex 0.6 -0.185 0
      vertex 0.6 -0.225 0
    endloop
  endfacet
  facet normal 0 0 1
    outer loop
      vertex 0.56 -0.225 1.2
      vertex 0.6 -0.225 1.2
      vertex 0.6 -0.185 1.2
    endloop
  endfacet
  facet normal 0 0 1
    outer loop
      vertex 0.56 -0.225 1.2
      vertex 0.6 -0.185 1.2
      vertex 0.56 -0.185 1.2
    endloop
  endfacet
  facet normal 0 1 0
    outer loop
      vertex 0.56 -0.185 0
      vertex 0.56 -0.185 1.2
      vertex 0.6 -0.185 1.2
    endloop
  endfacet
  facet normal 0 1 0
    outer loop
      vertex 0.56 -0.185 0
      vertex 0.6 -0.185 1.2
      vertex 0.6 -0.185 0
    endloop
  endfacet
  facet normal 0 -1 0
    outer loop
      vertex 0.56 -0.225 0
      vertex 0.6 -0.225 0
      vertex 0.6 -0.225 1.2
    endloop
  endfacet
  facet normal 0 -1 0
    outer loop
      vertex 0.56 -0.225 0
      vertex 0.6 -0.225 1.2
      vertex 0.56 -0.225 1.2
    endloop
  endfacet
  facet normal 1 0 0
    outer loop
      vertex 0.6 -0.225 0
      vertex 0.6 -0.185 0
      vertex 0.6 -0.185 1.2
    endloop
  endfacet
  facet normal 1 0 0
    outer loop
      vertex 0.6 -0.225 0
      vertex 0.6 -0.185 1.2
      vertex 0.6 -0.225 1.2
    endloop
  endfacet
  facet normal -1 0 0
    outer loop
      vertex 0.56 -0.225 0
      vertex 0.56 -0.225 1.2
      vertex 0.56 -0.185 1.2
    endloop
  endfacet
  facet normal -1 0 0
    outer loop
      vertex 0.56 -0.225 0
      vertex 0.56 -0.185 1.2
      vertex 0.56 -0.185 0
    endloop
  endfacet
  facet normal 0 0 -1
    outer loop
      vertex 0.56 0.185 0
      vertex 0.56 0.225 0
      vertex 0.6 0.225 0
    endloop
  endfacet
  facet normal 0 0 -1
    outer loop
      vertex 0.56 0.185 0
      vertex 0.6 0.225 0
      vertex 0.6 0.185 0
    endloop
  endfacet
  facet normal 0 0 1
    outer loop
      vertex 0.56 0.185 1.2
      vertex 0.6 0.185 1.2
      vertex 0.6 0.225 1.2
    endloop
  endfacet
  facet normal 0 0 1
    outer loop
      vertex 0.56 0.185 1.2
      vertex 0.6 0.225 1.2
      vertex 0.56 0.225 1.2
    endloop
  endfacet
  facet normal 0 1 0
    outer loop
      vertex 0.56 0.225 0
      vertex 0.56 0.225 1.2
      vertex 0.6 0.225 1.2
    endloop
  endfacet
  facet normal 0 1 0
    outer loop
      vertex 0.56 0.225 0
      vertex 0.6 0.225 1.2
      vertex 0.6 0.225 0
    endloop
  endfacet
  facet normal 0 -1 0
    outer loop
      vertex 0.56 0.185 0
      vertex 0.6 0.185 0
      vertex 0.6 0.185 1.2
    endloop
  endfacet
  facet normal 0 -1 0
    outer loop
      vertex 0.56 0.185 0
      vertex 0.6 0.185 1.2
      vertex 0.56 0.185 1.2
    endloop
  endfacet
  facet normal 1 0 0
    outer loop
      vertex 0.6 0.185 0
      vertex 0.6 0.225 0
      vertex 0.6 0.225 1.2
    endloop
  endfacet
  facet normal 1 0 0
    outer loop
      vertex 0.6 0.185 0
      vertex 0.6 0.225 1.2
      vertex 0.6 0.185 1.2
    endloop
  endfacet
  facet normal -1 0 0
    outer loop
      vertex 0.56 0.185 0
      vertex 0.56 0.185 1.2
      vertex 0.56 0.225 1.2
    endloop
  endfacet
  facet normal -1 0 0
    outer loop
      vertex 0.56 0.185 0
      vertex 0.56 0.225 1.2
      vertex 0.56 0.225 0
    endloop
  endfacet
  facet normal 0 0 -1
    outer loop
      vertex -0.6 -0.225 0.3925
      vertex -0.6 0.225 0.3925
      vertex 0.6 0.225 0.3925
    endloop
  endfacet
  facet normal 0 0 -1
    outer loop
      vertex -0.6 -0.225 0.3925
      vertex 0.6 0.225 0.3925
      vertex 0.6 -0.225 0.3925
    endloop
  endfacet
  facet normal 0 0 1
    outer loop
      vertex -0.6 -0.225 0.4475
      vertex 0.6 -0.225 0.4475
      vertex 0.6 0.225 0.4475
    endloop
  endfacet
  facet normal 0 0 1
    outer loop
      vertex -0.6 -0.225 0.4475
      vertex 0.6 0.225 0.4475
      vertex -0.6 0.225 0.4475
    endloop
  endfacet
  facet normal 0 1 0
    outer loop
      vertex -0.6 0.225 0.3925
      vertex -0.6 0.225 0.4475
      vertex 0.6 0.225 0.4475
    endloop
  endfacet
  facet normal 0 1 0
    outer loop
      vertex -0.6 0.225 0.3925
      vertex 0.6 0.225 0.4475
      vertex 0.6 0.225 0.3925
    endloop
  endfacet
  facet normal 0 -1 0
    outer loop
      vertex -0.6 -0.225 0.3925
      vertex 0.6 -0.225 0.3925
      vertex 0.6 -0.225 0.4475
    endloop
  endfacet
  facet normal 0 -1 0
    outer loop
      vertex -0.6 -0.225 0.3925
      vertex 0.6 -0.225 0.4475
      vertex -0.6 -0.225 0.4475
    endloop
  endfacet
  facet normal 1 0 0
    outer loop
      vertex 0.6 -0.225 0.3925
      vertex 0.6 0.225 0.3925
      vertex 0.6 0.225 0.4475
    endloop
  endfacet
  facet normal 1 0 0
    outer loop
      vertex 0.6 -0.225 0.3925
      vertex 0.6 0.225 0.4475
      vertex 0.6 -0.225 0.4475
    endloop
  endfacet
  facet normal -1 0 0
    outer loop
      vertex -0.6 -0.225 0.3925
      vertex -0.6 -0.225 0.4475
      vertex -0.6 0.225 0.4475
    endloop
  endfacet
  facet normal -1 0 0
    outer loop
      vertex -0.6 -0.225 0.3925
      vertex -0.6 0.225 0.4475
      vertex -0.6 0.225 0.3925
    endloop
  endfacet
  facet normal 0 0 -1
    outer loop
      vertex -0.6 -0.225 0.8725
      vertex -0.6 0.225 0.8725
      vertex 0.6 0.225 0.8725
    endloop
  endfacet
  facet normal 0 0 -1
    outer loop
      vertex -0.6 -0.225 0.8725
      vertex 0.6 0.225 0.8725
      vertex 0.6 -0.225 0.8725
    endloop
  endfacet
  facet normal 0 0 1
    outer loop
      vertex -0.6 -0.225 0.9275
      vertex 0.6 -0.225 0.9275
      vertex 0.6 0.225 0.9275
    endloop
  endfacet
  facet normal 0 0 1
    outer loop
      vertex -0.6 -0.225 0.9275
      vertex 0.6 0.225 0.9275
      vertex -0.6 0.225 0.9275
    endloop
  endfacet
  facet normal 0 1 0
    outer loop
      vertex -0.6 0.225 0.8725
      vertex -0.6 0.225 0.9275
      vertex 0.6 0.225 0.9275
    endloop
  endfacet
  facet normal 0 1 0
    outer loop
      vertex -0.6 0.225 0.8725
      vertex 0.6 0.225 0.9275
      vertex 0.6 0.225 0.8725
    endloop
  endfacet
  facet normal 0 -1 0
    outer loop
      vertex -0.6 -0.225 0.8725
      vertex 0.6 -0.225 0.8725
      vertex 0.6 -0.225 0.9275
    endloop
  endfacet
  facet normal 0 -1 0
    outer loop
      vertex -0.6 -0.225 0.8725
      vertex 0.6 -0.225 0.9275
      vertex -0.6 -0.225 0.9275
    endloop
  endfacet
  facet normal 1 0 0
    outer loop
      vertex 0.6 -0.225 0.8725
      vertex 0.6 0.225 0.8725
      vertex 0.6 0.225 0.9275
    endloop
  endfacet
  facet normal 1 0 0
    outer loop
      vertex 0.6 -0.225 0.8725
      vertex 0.6 0.225 0.9275
      vertex 0.6 -0.225 0.9275
    endloop
  endfacet
  facet normal -1 0 0
    outer loop
      vertex -0.6 -0.225 0.8725
      vertex -0.6 -0.225 0.9275
      vertex -0.6 0.225 0.9275
    endloop
  endfacet
  facet normal -1 0 0
    outer loop
      vertex -0.6 -0.225 0.8725
      vertex -0.6 0.225 0.9275
      vertex -0.6 0.225 0.8725
    endloop
  endfacet
  facet normal 0 0 -1
    outer loop
      vertex -0.6 -0.225 1.1125
      vertex -0.6 -0.185 1.1125
      vertex 0.6 -0.185 1.1125
    endloop
  endfacet
  facet normal 0 0 -1
    outer loop
      vertex -0.6 -0.225 1.1125
      vertex 0.6 -0.185 1.1125
      vertex 0.6 -0.225 1.1125
    endloop
  endfacet
  facet normal 0 0 1
    outer loop
      vertex -0.6 -0.225 1.1675
      vertex 0.6 -0.225 1.1675
      vertex 0.6 -0.185 1.1675
    endloop
  endfacet
  facet normal 0 0 1
    outer loop
      vertex -0.6 -0.225 1.1675
      vertex 0.6 -0.185 1.1675
      vertex -0.6 -0.185 1.1675
    endloop
  endfacet
  facet normal 0 1 0
    outer loop
      vertex -0.6 -0.185 1.1125
      vertex -0.6 -0.185 1.1675
      vertex 0.6 -0.185 1.1675
    endloop
  endfacet
  facet normal 0 1 0
    outer loop
      vertex -0.6 -0.185 1.1125
      vertex 0.6 -0.185 1.1675
      vertex 0.6 -0.185 1.1125
    endloop
  endfacet
  facet normal 0 -1 0
    outer loop
      vertex -0.6 -0.225 1.1125
      vertex 0.6 -0.225 1.1125
      vertex 0.6 -0.225 1.1675
    endloop
  endfacet
  facet normal 0 -1 0
    outer loop
      vertex -0.6 -0.225 1.1125
      vertex 0.6 -0.225 1.1675
      vertex -0.6 -0.225 1.1675
    endloop
  endfacet
  facet normal 1 0 0
    outer loop
      vertex 0.6 -0.225 1.1125
      vertex 0.6 -0.185 1.1125
      vertex 0.6 -0.185 1.1675
    endloop
  endfacet
  facet normal 1 0 0
    outer loop
      vertex 0.6 -0.225 1.1125
      vertex 0.6 -0.185 1.1675
      vertex 0.6 -0.225 1.1675
    endloop
  endfacet
  facet normal -1 0 0
    outer loop
      vertex -0.6 -0.225 1.1125
      vertex -0.6 -0.225 1.1675
      vertex -0.6 -0.185 1.1675
    endloop
  endfacet
  facet normal -1 0 0
    outer loop
      vertex -0.6 -0.225 1.1125
      vertex -0.6 -0.185 1.1675
      vertex -0.6 -0.185 1.1125
    endloop
  endfacet
endsolid shelf_unit
